  0
SECTION
  2
HEADER
  9
$ACADVER
  1
AC1009
  9
$DWGCODEPAGE
  3
ansi_1252
  9
$INSBASE
 10
0.0
 20
0.0
 30
0.0
  9
$EXTMIN
 10
0.0
 20
0.0
 30
0.0
  9
$EXTMAX
 10
508.0
 20
355.6
 30
0.0
  9
$LIMMIN
 10
0.0
 20
0.0
  9
$LIMMAX
 10
0.0
 20
0.0
  9
$ORTHOMODE
 70
     0
  9
$REGENMODE
 70
     1
  9
$FILLMODE
 70
     1
  9
$QTEXTMODE
 70
     0
  9
$MIRRTEXT
 70
     1
  9
$DRAGMODE
 70
     2
  9
$LTSCALE
 40
1.0
  9
$OSMODE
 70
    37
  9
$ATTMODE
 70
     1
  9
$TEXTSIZE
 40
3.5
  9
$TRACEWID
 40
1.0
  9
$TEXTSTYLE
  7
STANDARD
  9
$CLAYER
  8
0
  9
$CELTYPE
  6
BYLAYER
  9
$CECOLOR
 62
   256
  9
$DIMSCALE
 40
1.0
  9
$DIMASZ
 40
6.0
  9
$DIMEXO
 40
1.0
  9
$DIMDLI
 40
3.75
  9
$DIMRND
 40
0.0
  9
$DIMDLE
 40
0.0
  9
$DIMEXE
 40
1.0
  9
$DIMTP
 40
0.0
  9
$DIMTM
 40
0.0
  9
$DIMTXT
 40
3.5
  9
$DIMCEN
 40
2.5
  9
$DIMTSZ
 40
0.0
  9
$DIMTOL
 70
     0
  9
$DIMLIM
 70
     0
  9
$DIMTIH
 70
     1
  9
$DIMTOH
 70
     1
  9
$DIMSE1
 70
     0
  9
$DIMSE2
 70
     0
  9
$DIMTAD
 70
     1
  9
$DIMZIN
 70
     0
  9
$DIMBLK
  1

  9
$DIMASO
 70
     1
  9
$DIMSHO
 70
     1
  9
$DIMPOST
  1

  9
$DIMAPOST
  1

  9
$DIMALT
 70
     0
  9
$DIMALTD
 70
     3
  9
$DIMALTF
 40
0.0393700787
  9
$DIMLFAC
 40
1.0
  9
$DIMTOFL
 70
     1
  9
$DIMTVP
 40
0.0
  9
$DIMTIX
 70
     0
  9
$DIMSOXD
 70
     0
  9
$DIMSAH
 70
     0
  9
$DIMBLK1
  1

  9
$DIMBLK2
  1

  9
$DIMSTYLE
  2
ISO-25
  9
$DIMCLRD
 70
     0
  9
$DIMCLRE
 70
     0
  9
$DIMCLRT
 70
     0
  9
$DIMTFAC
 40
1.0
  9
$DIMGAP
 40
1.524
  9
$LUNITS
 70
     2
  9
$LUPREC
 70
     2
  9
$SKETCHINC
 40
1.0
  9
$FILLETRAD
 40
10.0
  9
$AUNITS
 70
     0
  9
$AUPREC
 70
     0
  9
$MENU
  1
.
  9
$ELEVATION
 40
0.0
  9
$PELEVATION
 40
0.0
  9
$THICKNESS
 40
0.0
  9
$LIMCHECK
 70
     0
  9
$CHAMFERA
 40
10.0
  9
$CHAMFERB
 40
10.0
  9
$SKPOLY
 70
     0
  9
$TDCREATE
 40
2455047.834461979
  9
$TDUPDATE
 40
2455047.834461991
  9
$TDINDWG
 40
0.0000000116
  9
$TDUSRTIMER
 40
0.0000000116
  9
$USRTIMER
 70
     1
  9
$ANGBASE
 50
0.0
  9
$ANGDIR
 70
     0
  9
$PDMODE
 70
     0
  9
$PDSIZE
 40
-1.0
  9
$PLINEWID
 40
0.0
  9
$COORDS
 70
     1
  9
$SPLFRAME
 70
     0
  9
$SPLINETYPE
 70
     6
  9
$SPLINESEGS
 70
     8
  9
$ATTDIA
 70
     0
  9
$ATTREQ
 70
     1
  9
$HANDLING
 70
     1
  9
$HANDSEED
  5
C2
  9
$SURFTAB1
 70
     6
  9
$SURFTAB2
 70
     6
  9
$SURFTYPE
 70
     6
  9
$SURFU
 70
     6
  9
$SURFV
 70
     6
  9
$UCSNAME
  2

  9
$UCSORG
 10
0.0
 20
0.0
 30
0.0
  9
$UCSXDIR
 10
1.0
 20
0.0
 30
0.0
  9
$UCSYDIR
 10
0.0
 20
1.0
 30
0.0
  9
$PUCSNAME
  2

  9
$PUCSORG
 10
0.0
 20
0.0
 30
0.0
  9
$PUCSXDIR
 10
1.0
 20
0.0
 30
0.0
  9
$PUCSYDIR
 10
0.0
 20
1.0
 30
0.0
  9
$USERI1
 70
     0
  9
$USERI2
 70
     0
  9
$USERI3
 70
     0
  9
$USERI4
 70
     0
  9
$USERI5
 70
     0
  9
$USERR1
 40
0.0
  9
$USERR2
 40
0.0
  9
$USERR3
 40
0.0
  9
$USERR4
 40
0.0
  9
$USERR5
 40
0.0
  9
$WORLDVIEW
 70
     1
  9
$SHADEDGE
 70
     3
  9
$SHADEDIF
 70
    70
  9
$TILEMODE
 70
     1
  9
$MAXACTVP
 70
    64
  9
$PLIMCHECK
 70
     0
  9
$PEXTMIN
 10
1.0000000000E+20
 20
1.0000000000E+20
 30
1.0000000000E+20
  9
$PEXTMAX
 10
-1.0000000000E+20
 20
-1.0000000000E+20
 30
-1.0000000000E+20
  9
$PLIMMIN
 10
0.0
 20
0.0
  9
$PLIMMAX
 10
420.0
 20
297.0
  9
$UNITMODE
 70
     0
  9
$VISRETAIN
 70
     1
  9
$PLINEGEN
 70
     0
  9
$PSLTSCALE
 70
     1
  0
ENDSEC
  0
SECTION
  2
TABLES
  0
TABLE
  2
VPORT
 70
     1
  0
VPORT
  2
*ACTIVE
 70
     0
 10
0.0
 20
0.0
 11
1.0
 21
1.0
 12
254.0
 22
177.8
 13
0.0
 23
0.0
 14
10.0
 24
10.0
 15
10.0
 25
10.0
 16
0.0
 26
0.0
 36
1.0
 17
0.0
 27
0.0
 37
0.0
 40
355.6
 41
1.4285714286
 42
50.0
 43
0.0
 44
0.0
 50
0.0
 51
0.0
 71
     0
 72
  2000
 73
     1
 74
     3
 75
     0
 76
     0
 77
     0
 78
     0
  0
ENDTAB
  0
TABLE
  2
LTYPE
 70
     6
  0
LTYPE
  2
CONTINUOUS
 70
     0
  3
Solid line
 72
    65
 73
     0
 40
0.0
  0
LTYPE
  2
HIDDEN
 70
     0
  3
Hidden __ __ __ __ __ __ __ __ __ __ __ __ __ __
 72
    65
 73
     2
 40
1.905
 49
1.27
 49
-0.635
  0
LTYPE
  2
PHANTOM
 70
     0
  3
Phantom ______  __  __  ______  __  __  ______
 72
    65
 73
     6
 40
12.7
 49
6.35
 49
-1.27
 49
1.27
 49
-1.27
 49
1.27
 49
-1.27
  0
LTYPE
  2
CENTER
 70
     0
  3
Center ____ _ ____ _ ____ _ ____ _ ____ _ ____
 72
    65
 73
     4
 40
10.16
 49
6.35
 49
-1.27
 49
1.27
 49
-1.27
  0
LTYPE
  2
CENTERX2
 70
     0
  3
Center (2x) ________  __  ________  __  _____
 72
    65
 73
     4
 40
20.32
 49
12.7
 49
-2.54
 49
2.54
 49
-2.54
  0
LTYPE
  2
DOT2
 70
     0
  3
Dot (.5x) ........................................
 72
    65
 73
     2
 40
0.635
 49
0.0
 49
-0.635
  0
ENDTAB
  0
TABLE
  2
LAYER
 70
     1
  0
LAYER
  2
0
 70
     0
 62
     7
  6
CONTINUOUS
  0
ENDTAB
  0
TABLE
  2
STYLE
 70
     1
  0
STYLE
  2
STANDARD
 70
     0
 40
0.0
 41
1.0
 50
0.0
 71
     0
 42
2.5
  3
txt
  4

  0
ENDTAB
  0
TABLE
  2
VIEW
 70
     0
  0
ENDTAB
  0
TABLE
  2
UCS
 70
     0
  0
ENDTAB
  0
TABLE
  2
APPID
 70
     1
  0
APPID
  2
ACAD
 70
     0
  0
ENDTAB
  0
TABLE
  2
DIMSTYLE
 70
     1
  0
DIMSTYLE
  2
ISO-25
 70
     0
  3

  4

  5

  6

  7

 40
1.0
 41
2.5
 42
0.625
 43
3.75
 44
1.25
 45
0.0
 46
0.0
 47
0.0
 48
0.0
140
2.5
141
2.5
142
0.0
143
0.0393700787
144
1.0
145
0.0
146
1.0
147
0.625
 71
     0
 72
     0
 73
     0
 74
     0
 75
     0
 76
     0
 77
     1
 78
     8
170
     0
171
     3
172
     1
173
     0
174
     0
175
     0
176
     0
177
     0
178
     0
  0
ENDTAB
  0
ENDSEC
  0
SECTION
  2
BLOCKS
  0
BLOCK
  8
0
  2
$MODEL_SPACE
 70
     0
 10
0.0
 20
0.0
 30
0.0
  3
$MODEL_SPACE
  1

  0
ENDBLK
  5
21
  8
0
  0
BLOCK
 67
     1
  8
0
  2
$PAPER_SPACE
 70
     0
 10
0.0
 20
0.0
 30
0.0
  3
$PAPER_SPACE
  1

  0
ENDBLK
  5
1D
 67
     1
  8
0
  0
ENDSEC
  0
SECTION
  2
ENTITIES
  0
LINE
  5
2F
  8
0
  6
CONTINUOUS
 62
     7
 10
9.4661380021
 20
32.6190484037
 30
0.0
 11
24.4661380021
 21
32.6190484037
 31
0.0
  0
LINE
  5
30
  8
0
  6
CONTINUOUS
 62
     7
 10
9.4661380021
 20
319.6190484037
 30
0.0
 11
9.4661380021
 21
32.6190484037
 31
0.0
  0
LINE
  5
31
  8
0
  6
CONTINUOUS
 62
     7
 10
24.4661380021
 20
319.6190484037
 30
0.0
 11
9.4661380021
 21
319.6190484037
 31
0.0
  0
LINE
  5
32
  8
0
  6
CONTINUOUS
 62
     7
 10
24.4661380021
 20
319.6190484037
 30
0.0
 11
24.4661380021
 21
32.6190484037
 31
0.0
  0
CIRCLE
  5
33
  8
0
  6
CONTINUOUS
 62
     7
 10
16.9661380021
 20
312.1190484037
 30
0.0
 40
2.552699999999962
  0
CIRCLE
  5
34
  8
0
  6
CONTINUOUS
 62
     7
 10
16.9661380021
 20
244.1190484037
 30
0.0
 40
2.552699999999991
  0
CIRCLE
  5
35
  8
0
  6
CONTINUOUS
 62
     7
 10
16.9661380021
 20
176.1190484037
 30
0.0
 40
2.552699999999991
  0
CIRCLE
  5
36
  8
0
  6
CONTINUOUS
 62
     7
 10
16.9661380021
 20
108.1190484037
 30
0.0
 40
2.552699999999962
  0
CIRCLE
  5
37
  8
0
  6
CONTINUOUS
 62
     7
 10
16.9661380021
 20
40.1190484037
 30
0.0
 40
2.552699999999962
  0
LINE
  5
38
  8
0
  6
CONTINUOUS
 62
     7
 10
420.8661380021
 20
319.6190484037
 30
0.0
 11
44.4661380021
 21
319.6190484037
 31
0.0
  0
LINE
  5
39
  8
0
  6
CONTINUOUS
 62
     7
 10
420.8661380021
 20
319.6190484037
 30
0.0
 11
420.8661380021
 21
304.6190484037
 31
0.0
  0
LINE
  5
3A
  8
0
  6
CONTINUOUS
 62
     7
 10
420.8661380021
 20
304.6190484037
 30
0.0
 11
44.4661380021
 21
304.6190484037
 31
0.0
  0
LINE
  5
3B
  8
0
  6
CONTINUOUS
 62
     7
 10
44.4661380021
 20
304.6190484037
 30
0.0
 11
44.4661380021
 21
319.6190484037
 31
0.0
  0
CIRCLE
  5
3C
  8
0
  6
CONTINUOUS
 62
     7
 10
51.9661380021
 20
312.1190484037
 30
0.0
 40
2.552699999999994
  0
CIRCLE
  5
3D
  8
0
  6
CONTINUOUS
 62
     7
 10
77.3661380021
 20
312.1190484037
 30
0.0
 40
2.552699999999987
  0
CIRCLE
  5
3E
  8
0
  6
CONTINUOUS
 62
     7
 10
102.7661380021
 20
312.1190484037
 30
0.0
 40
2.552699999999959
  0
CIRCLE
  5
3F
  8
0
  6
CONTINUOUS
 62
     7
 10
128.1661380021
 20
312.1190484037
 30
0.0
 40
2.552699999999987
  0
CIRCLE
  5
40
  8
0
  6
CONTINUOUS
 62
     7
 10
153.5661380021
 20
312.1190484037
 30
0.0
 40
2.552699999999987
  0
CIRCLE
  5
41
  8
0
  6
CONTINUOUS
 62
     7
 10
178.9661380021
 20
312.1190484037
 30
0.0
 40
2.552699999999987
  0
CIRCLE
  5
42
  8
0
  6
CONTINUOUS
 62
     7
 10
204.3661380021
 20
312.1190484037
 30
0.0
 40
2.552699999999987
  0
CIRCLE
  5
43
  8
0
  6
CONTINUOUS
 62
     7
 10
229.7661380021
 20
312.1190484037
 30
0.0
 40
2.552699999999987
  0
CIRCLE
  5
44
  8
0
  6
CONTINUOUS
 62
     7
 10
255.1661380021
 20
312.1190484037
 30
0.0
 40
2.552699999999987
  0
CIRCLE
  5
45
  8
0
  6
CONTINUOUS
 62
     7
 10
280.5661380021
 20
312.1190484037
 30
0.0
 40
2.552700000000016
  0
CIRCLE
  5
46
  8
0
  6
CONTINUOUS
 62
     7
 10
305.9661380021
 20
312.1190484037
 30
0.0
 40
2.552700000000016
  0
CIRCLE
  5
47
  8
0
  6
CONTINUOUS
 62
     7
 10
331.3661380021
 20
312.1190484037
 30
0.0
 40
2.552700000000016
  0
CIRCLE
  5
48
  8
0
  6
CONTINUOUS
 62
     7
 10
356.7661380021
 20
312.1190484037
 30
0.0
 40
2.552700000000016
  0
CIRCLE
  5
49
  8
0
  6
CONTINUOUS
 62
     7
 10
382.1661380021
 20
312.1190484037
 30
0.0
 40
2.552700000000016
  0
CIRCLE
  5
4A
  8
0
  6
CONTINUOUS
 62
     7
 10
407.5661380021
 20
312.1190484037
 30
0.0
 40
2.552700000000016
  0
LINE
  5
4B
  8
0
  6
CONTINUOUS
 62
     7
 10
496.6661380021
 20
319.6190484037
 30
0.0
 11
445.8661380021
 21
319.6190484037
 31
0.0
  0
LINE
  5
4C
  8
0
  6
CONTINUOUS
 62
     7
 10
496.6661380021
 20
304.6190484037
 30
0.0
 11
496.6661380021
 21
319.6190484037
 31
0.0
  0
LINE
  5
4D
  8
0
  6
CONTINUOUS
 62
     7
 10
496.6661380021
 20
304.6190484037
 30
0.0
 11
445.8661380021
 21
304.6190484037
 31
0.0
  0
LINE
  5
4E
  8
0
  6
CONTINUOUS
 62
     7
 10
445.8661380021
 20
304.6190484037
 30
0.0
 11
445.8661380021
 21
319.6190484037
 31
0.0
  0
CIRCLE
  5
4F
  8
0
  6
CONTINUOUS
 62
     7
 10
458.3661380021
 20
312.1190484037
 30
0.0
 40
2.552700000000016
  0
CIRCLE
  5
50
  8
0
  6
CONTINUOUS
 62
     7
 10
483.7661380021
 20
312.1190484037
 30
0.0
 40
2.552700000000016
  0
LINE
  5
51
  8
0
  6
CONTINUOUS
 62
     7
 10
496.6661380021
 20
236.6190484037
 30
0.0
 11
496.6661380021
 21
251.6190484037
 31
0.0
  0
LINE
  5
52
  8
0
  6
CONTINUOUS
 62
     7
 10
496.6661380021
 20
236.6190484037
 30
0.0
 11
445.8661380021
 21
236.6190484037
 31
0.0
  0
LINE
  5
53
  8
0
  6
CONTINUOUS
 62
     7
 10
445.8661380021
 20
236.6190484037
 30
0.0
 11
445.8661380021
 21
251.6190484037
 31
0.0
  0
LINE
  5
54
  8
0
  6
CONTINUOUS
 62
     7
 10
445.8661380021
 20
251.6190484037
 30
0.0
 11
496.6661380021
 21
251.6190484037
 31
0.0
  0
CIRCLE
  5
55
  8
0
  6
CONTINUOUS
 62
     7
 10
458.3661380021
 20
244.1190484037
 30
0.0
 40
2.552700000000016
  0
CIRCLE
  5
56
  8
0
  6
CONTINUOUS
 62
     7
 10
483.7661380021
 20
244.1190484037
 30
0.0
 40
2.552700000000016
  0
LINE
  5
57
  8
0
  6
CONTINUOUS
 62
     7
 10
496.6661380021
 20
168.6190484037
 30
0.0
 11
496.6661380021
 21
183.6190484037
 31
0.0
  0
LINE
  5
58
  8
0
  6
CONTINUOUS
 62
     7
 10
496.6661380021
 20
168.6190484037
 30
0.0
 11
445.8661380021
 21
168.6190484037
 31
0.0
  0
LINE
  5
59
  8
0
  6
CONTINUOUS
 62
     7
 10
445.8661380021
 20
168.6190484037
 30
0.0
 11
445.8661380021
 21
183.6190484037
 31
0.0
  0
LINE
  5
5A
  8
0
  6
CONTINUOUS
 62
     7
 10
445.8661380021
 20
183.6190484037
 30
0.0
 11
496.6661380021
 21
183.6190484037
 31
0.0
  0
CIRCLE
  5
5B
  8
0
  6
CONTINUOUS
 62
     7
 10
458.3661380021
 20
176.1190484037
 30
0.0
 40
2.552700000000016
  0
CIRCLE
  5
5C
  8
0
  6
CONTINUOUS
 62
     7
 10
483.7661380021
 20
176.1190484037
 30
0.0
 40
2.552700000000016
  0
LINE
  5
5D
  8
0
  6
CONTINUOUS
 62
     7
 10
496.6661380021
 20
100.6190484037
 30
0.0
 11
496.6661380021
 21
115.6190484037
 31
0.0
  0
LINE
  5
5E
  8
0
  6
CONTINUOUS
 62
     7
 10
496.6661380021
 20
100.6190484037
 30
0.0
 11
445.8661380021
 21
100.6190484037
 31
0.0
  0
LINE
  5
5F
  8
0
  6
CONTINUOUS
 62
     7
 10
445.8661380021
 20
100.6190484037
 30
0.0
 11
445.8661380021
 21
115.6190484037
 31
0.0
  0
LINE
  5
60
  8
0
  6
CONTINUOUS
 62
     7
 10
445.8661380021
 20
115.6190484037
 30
0.0
 11
496.6661380021
 21
115.6190484037
 31
0.0
  0
CIRCLE
  5
61
  8
0
  6
CONTINUOUS
 62
     7
 10
458.3661380021
 20
108.1190484037
 30
0.0
 40
2.552700000000016
  0
CIRCLE
  5
62
  8
0
  6
CONTINUOUS
 62
     7
 10
483.7661380021
 20
108.1190484037
 30
0.0
 40
2.552700000000016
  0
LINE
  5
63
  8
0
  6
CONTINUOUS
 62
     7
 10
496.6661380021
 20
32.6190484037
 30
0.0
 11
496.6661380021
 21
47.6190484037
 31
0.0
  0
LINE
  5
64
  8
0
  6
CONTINUOUS
 62
     7
 10
445.8661380021
 20
32.6190484037
 30
0.0
 11
496.6661380021
 21
32.6190484037
 31
0.0
  0
LINE
  5
65
  8
0
  6
CONTINUOUS
 62
     7
 10
445.8661380021
 20
32.6190484037
 30
0.0
 11
445.8661380021
 21
47.6190484037
 31
0.0
  0
LINE
  5
66
  8
0
  6
CONTINUOUS
 62
     7
 10
445.8661380021
 20
47.6190484037
 30
0.0
 11
496.6661380021
 21
47.6190484037
 31
0.0
  0
CIRCLE
  5
67
  8
0
  6
CONTINUOUS
 62
     7
 10
458.3661380021
 20
40.1190484037
 30
0.0
 40
2.552700000000016
  0
CIRCLE
  5
68
  8
0
  6
CONTINUOUS
 62
     7
 10
483.7661380021
 20
40.1190484037
 30
0.0
 40
2.552700000000016
  0
LINE
  5
69
  8
0
  6
CONTINUOUS
 62
     7
 10
44.4661380021
 20
32.6190484037
 30
0.0
 11
44.4661380021
 21
47.6190484037
 31
0.0
  0
LINE
  5
6A
  8
0
  6
CONTINUOUS
 62
     7
 10
44.4661380021
 20
47.6190484037
 30
0.0
 11
420.8661380021
 21
47.6190484037
 31
0.0
  0
LINE
  5
6B
  8
0
  6
CONTINUOUS
 62
     7
 10
420.8661380021
 20
47.6190484037
 30
0.0
 11
420.8661380021
 21
32.6190484037
 31
0.0
  0
CIRCLE
  5
6C
  8
0
  6
CONTINUOUS
 62
     7
 10
51.9661380021
 20
40.1190484037
 30
0.0
 40
2.552699999999987
  0
CIRCLE
  5
6D
  8
0
  6
CONTINUOUS
 62
     7
 10
77.3661380021
 20
40.1190484037
 30
0.0
 40
2.552699999999987
  0
CIRCLE
  5
6E
  8
0
  6
CONTINUOUS
 62
     7
 10
102.7661380021
 20
40.1190484037
 30
0.0
 40
2.552699999999959
  0
CIRCLE
  5
6F
  8
0
  6
CONTINUOUS
 62
     7
 10
128.1661380021
 20
40.1190484037
 30
0.0
 40
2.552700000000016
  0
CIRCLE
  5
70
  8
0
  6
CONTINUOUS
 62
     7
 10
153.5661380021
 20
40.1190484037
 30
0.0
 40
2.552699999999987
  0
CIRCLE
  5
71
  8
0
  6
CONTINUOUS
 62
     7
 10
178.9661380021
 20
40.1190484037
 30
0.0
 40
2.552699999999987
  0
CIRCLE
  5
72
  8
0
  6
CONTINUOUS
 62
     7
 10
204.3661380021
 20
40.1190484037
 30
0.0
 40
2.552699999999987
  0
CIRCLE
  5
73
  8
0
  6
CONTINUOUS
 62
     7
 10
229.7661380021
 20
40.1190484037
 30
0.0
 40
2.552699999999987
  0
CIRCLE
  5
74
  8
0
  6
CONTINUOUS
 62
     7
 10
255.1661380021
 20
40.1190484037
 30
0.0
 40
2.55269999999993
  0
CIRCLE
  5
75
  8
0
  6
CONTINUOUS
 62
     7
 10
280.5661380021
 20
40.1190484037
 30
0.0
 40
2.552700000000016
  0
CIRCLE
  5
76
  8
0
  6
CONTINUOUS
 62
     7
 10
305.9661380021
 20
40.1190484037
 30
0.0
 40
2.552700000000016
  0
CIRCLE
  5
77
  8
0
  6
CONTINUOUS
 62
     7
 10
331.3661380021
 20
40.1190484037
 30
0.0
 40
2.552700000000016
  0
CIRCLE
  5
78
  8
0
  6
CONTINUOUS
 62
     7
 10
356.7661380021
 20
40.1190484037
 30
0.0
 40
2.552700000000016
  0
CIRCLE
  5
79
  8
0
  6
CONTINUOUS
 62
     7
 10
382.1661380021
 20
40.1190484037
 30
0.0
 40
2.552700000000016
  0
CIRCLE
  5
7A
  8
0
  6
CONTINUOUS
 62
     7
 10
407.5661380021
 20
40.1190484037
 30
0.0
 40
2.552700000000016
  0
LINE
  5
7B
  8
0
  6
CONTINUOUS
 62
     7
 10
44.4661380021
 20
32.6190484037
 30
0.0
 11
420.8661380021
 21
32.6190484037
 31
0.0
  0
CIRCLE
  5
7C
  8
0
  6
CONTINUOUS
 62
     7
 10
51.9661380021
 20
176.1190484037
 30
0.0
 40
2.552699999999987
  0
CIRCLE
  5
7D
  8
0
  6
CONTINUOUS
 62
     7
 10
77.3661380021
 20
176.1190484037
 30
0.0
 40
2.552700000000016
  0
CIRCLE
  5
7E
  8
0
  6
CONTINUOUS
 62
     7
 10
102.7661380021
 20
176.1190484037
 30
0.0
 40
2.552700000000016
  0
CIRCLE
  5
7F
  8
0
  6
CONTINUOUS
 62
     7
 10
128.1661380021
 20
176.1190484037
 30
0.0
 40
2.552699999999987
  0
CIRCLE
  5
80
  8
0
  6
CONTINUOUS
 62
     7
 10
153.5661380021
 20
176.1190484037
 30
0.0
 40
2.552699999999987
  0
CIRCLE
  5
81
  8
0
  6
CONTINUOUS
 62
     7
 10
178.9661380021
 20
176.1190484037
 30
0.0
 40
2.552699999999987
  0
CIRCLE
  5
82
  8
0
  6
CONTINUOUS
 62
     7
 10
204.3661380021
 20
176.1190484037
 30
0.0
 40
2.552699999999987
  0
CIRCLE
  5
83
  8
0
  6
CONTINUOUS
 62
     7
 10
229.7661380021
 20
176.1190484037
 30
0.0
 40
2.552699999999987
  0
CIRCLE
  5
84
  8
0
  6
CONTINUOUS
 62
     7
 10
255.1661380021
 20
176.1190484037
 30
0.0
 40
2.55269999999993
  0
CIRCLE
  5
85
  8
0
  6
CONTINUOUS
 62
     7
 10
280.5661380021
 20
176.1190484037
 30
0.0
 40
2.552700000000016
  0
CIRCLE
  5
86
  8
0
  6
CONTINUOUS
 62
     7
 10
305.9661380021
 20
176.1190484037
 30
0.0
 40
2.552700000000016
  0
CIRCLE
  5
87
  8
0
  6
CONTINUOUS
 62
     7
 10
331.3661380021
 20
176.1190484037
 30
0.0
 40
2.552700000000016
  0
CIRCLE
  5
88
  8
0
  6
CONTINUOUS
 62
     7
 10
356.7661380021
 20
176.1190484037
 30
0.0
 40
2.552700000000016
  0
CIRCLE
  5
89
  8
0
  6
CONTINUOUS
 62
     7
 10
382.1661380021
 20
176.1190484037
 30
0.0
 40
2.552700000000016
  0
CIRCLE
  5
8A
  8
0
  6
CONTINUOUS
 62
     7
 10
407.5661380021
 20
176.1190484037
 30
0.0
 40
2.552700000000016
  0
LINE
  5
8B
  8
0
  6
CONTINUOUS
 62
     7
 10
420.8661380021
 20
183.6190484037
 30
0.0
 11
44.4661380021
 21
183.6190484037
 31
0.0
  0
LINE
  5
8C
  8
0
  6
CONTINUOUS
 62
     7
 10
44.4661380021
 20
183.6190484037
 30
0.0
 11
44.4661380021
 21
168.6190484037
 31
0.0
  0
LINE
  5
8D
  8
0
  6
CONTINUOUS
 62
     7
 10
44.4661380021
 20
168.6190484037
 30
0.0
 11
420.8661380021
 21
168.6190484037
 31
0.0
  0
LINE
  5
8E
  8
0
  6
CONTINUOUS
 62
     7
 10
420.8661380021
 20
168.6190484037
 30
0.0
 11
420.8661380021
 21
183.6190484037
 31
0.0
  0
CIRCLE
  5
8F
  8
0
  6
CONTINUOUS
 62
     7
 10
51.9661380021
 20
244.1190484037
 30
0.0
 40
2.552700000000016
  0
CIRCLE
  5
90
  8
0
  6
CONTINUOUS
 62
     7
 10
77.3661380021
 20
244.1190484037
 30
0.0
 40
2.552699999999987
  0
CIRCLE
  5
91
  8
0
  6
CONTINUOUS
 62
     7
 10
102.7661380021
 20
244.1190484037
 30
0.0
 40
2.552700000000016
  0
CIRCLE
  5
92
  8
0
  6
CONTINUOUS
 62
     7
 10
128.1661380021
 20
244.1190484037
 30
0.0
 40
2.552700000000016
  0
CIRCLE
  5
93
  8
0
  6
CONTINUOUS
 62
     7
 10
153.5661380021
 20
244.1190484037
 30
0.0
 40
2.552699999999987
  0
CIRCLE
  5
94
  8
0
  6
CONTINUOUS
 62
     7
 10
178.9661380021
 20
244.1190484037
 30
0.0
 40
2.552699999999987
  0
CIRCLE
  5
95
  8
0
  6
CONTINUOUS
 62
     7
 10
204.3661380021
 20
244.1190484037
 30
0.0
 40
2.552699999999987
  0
CIRCLE
  5
96
  8
0
  6
CONTINUOUS
 62
     7
 10
229.7661380021
 20
244.1190484037
 30
0.0
 40
2.552699999999987
  0
CIRCLE
  5
97
  8
0
  6
CONTINUOUS
 62
     7
 10
255.1661380021
 20
244.1190484037
 30
0.0
 40
2.552699999999987
  0
CIRCLE
  5
98
  8
0
  6
CONTINUOUS
 62
     7
 10
280.5661380021
 20
244.1190484037
 30
0.0
 40
2.552700000000016
  0
CIRCLE
  5
99
  8
0
  6
CONTINUOUS
 62
     7
 10
305.9661380021
 20
244.1190484037
 30
0.0
 40
2.552700000000016
  0
CIRCLE
  5
9A
  8
0
  6
CONTINUOUS
 62
     7
 10
356.7661380021
 20
244.1190484037
 30
0.0
 40
2.552700000000016
  0
CIRCLE
  5
9B
  8
0
  6
CONTINUOUS
 62
     7
 10
382.1661380021
 20
244.1190484037
 30
0.0
 40
2.552700000000016
  0
CIRCLE
  5
9C
  8
0
  6
CONTINUOUS
 62
     7
 10
407.5661380021
 20
244.1190484037
 30
0.0
 40
2.552700000000016
  0
LINE
  5
9D
  8
0
  6
CONTINUOUS
 62
     7
 10
420.8661380021
 20
236.6190484037
 30
0.0
 11
420.8661380021
 21
251.6190484037
 31
0.0
  0
LINE
  5
9E
  8
0
  6
CONTINUOUS
 62
     7
 10
420.8661380021
 20
251.6190484037
 30
0.0
 11
44.4661380021
 21
251.6190484037
 31
0.0
  0
LINE
  5
9F
  8
0
  6
CONTINUOUS
 62
     7
 10
44.4661380021
 20
251.6190484037
 30
0.0
 11
44.4661380021
 21
236.6190484037
 31
0.0
  0
LINE
  5
A0
  8
0
  6
CONTINUOUS
 62
     7
 10
44.4661380021
 20
236.6190484037
 30
0.0
 11
420.8661380021
 21
236.6190484037
 31
0.0
  0
CIRCLE
  5
A1
  8
0
  6
CONTINUOUS
 62
     7
 10
331.3661380021
 20
244.1190484037
 30
0.0
 40
2.552700000000016
  0
CIRCLE
  5
A2
  8
0
  6
CONTINUOUS
 62
     7
 10
51.9661380021
 20
108.1190484037
 30
0.0
 40
2.552699999999987
  0
CIRCLE
  5
A3
  8
0
  6
CONTINUOUS
 62
     7
 10
77.3661380021
 20
108.1190484037
 30
0.0
 40
2.552699999999987
  0
CIRCLE
  5
A4
  8
0
  6
CONTINUOUS
 62
     7
 10
102.7661380021
 20
108.1190484037
 30
0.0
 40
2.552699999999987
  0
CIRCLE
  5
A5
  8
0
  6
CONTINUOUS
 62
     7
 10
128.1661380021
 20
108.1190484037
 30
0.0
 40
2.552699999999987
  0
CIRCLE
  5
A6
  8
0
  6
CONTINUOUS
 62
     7
 10
153.5661380021
 20
108.1190484037
 30
0.0
 40
2.552699999999987
  0
CIRCLE
  5
A7
  8
0
  6
CONTINUOUS
 62
     7
 10
178.9661380021
 20
108.1190484037
 30
0.0
 40
2.552699999999987
  0
CIRCLE
  5
A8
  8
0
  6
CONTINUOUS
 62
     7
 10
204.3661380021
 20
108.1190484037
 30
0.0
 40
2.552699999999987
  0
CIRCLE
  5
A9
  8
0
  6
CONTINUOUS
 62
     7
 10
229.7661380021
 20
108.1190484037
 30
0.0
 40
2.552699999999987
  0
CIRCLE
  5
AA
  8
0
  6
CONTINUOUS
 62
     7
 10
255.1661380021
 20
108.1190484037
 30
0.0
 40
2.55269999999993
  0
CIRCLE
  5
AB
  8
0
  6
CONTINUOUS
 62
     7
 10
280.5661380021
 20
108.1190484037
 30
0.0
 40
2.552700000000016
  0
CIRCLE
  5
AC
  8
0
  6
CONTINUOUS
 62
     7
 10
305.9661380021
 20
108.1190484037
 30
0.0
 40
2.552700000000016
  0
CIRCLE
  5
AD
  8
0
  6
CONTINUOUS
 62
     7
 10
331.3661380021
 20
108.1190484037
 30
0.0
 40
2.552700000000016
  0
CIRCLE
  5
AE
  8
0
  6
CONTINUOUS
 62
     7
 10
356.7661380021
 20
108.1190484037
 30
0.0
 40
2.552700000000016
  0
CIRCLE
  5
AF
  8
0
  6
CONTINUOUS
 62
     7
 10
382.1661380021
 20
108.1190484037
 30
0.0
 40
2.552700000000016
  0
CIRCLE
  5
B0
  8
0
  6
CONTINUOUS
 62
     7
 10
407.5661380021
 20
108.1190484037
 30
0.0
 40
2.552700000000016
  0
LINE
  5
B1
  8
0
  6
CONTINUOUS
 62
     7
 10
44.4661380021
 20
115.6190484037
 30
0.0
 11
44.4661380021
 21
100.6190484037
 31
0.0
  0
LINE
  5
B2
  8
0
  6
CONTINUOUS
 62
     7
 10
44.4661380021
 20
100.6190484037
 30
0.0
 11
420.8661380021
 21
100.6190484037
 31
0.0
  0
LINE
  5
B3
  8
0
  6
CONTINUOUS
 62
     7
 10
420.8661380021
 20
100.6190484037
 30
0.0
 11
420.8661380021
 21
115.6190484037
 31
0.0
  0
LINE
  5
B4
  8
0
  6
CONTINUOUS
 62
     7
 10
420.8661380021
 20
115.6190484037
 30
0.0
 11
44.4661380021
 21
115.6190484037
 31
0.0
  0
CIRCLE
  5
B5
  8
0
  6
CONTINUOUS
 62
     7
 10
432.9661380021
 20
244.1190484037
 30
0.0
 40
2.552700000000016
  0
CIRCLE
  5
B6
  8
0
  6
CONTINUOUS
 62
     7
 10
432.9661380021
 20
108.1190484037
 30
0.0
 40
2.552700000000016
  0
CIRCLE
  5
B7
  8
0
  6
CONTINUOUS
 62
     7
 10
432.9661380021
 20
176.1190484037
 30
0.0
 40
2.552700000000016
  0
CIRCLE
  5
B8
  8
0
  6
CONTINUOUS
 62
     7
 10
432.9661380021
 20
312.1190484037
 30
0.0
 40
2.552700000000016
  0
CIRCLE
  5
B9
  8
0
  6
CONTINUOUS
 62
     7
 10
432.9661380021
 20
40.1190484037
 30
0.0
 40
2.552700000000016
  0
LINE
  5
BA
  8
0
  6
CONTINUOUS
 62
     7
 10
44.4661380021
 20
319.6190484037
 30
0.0
 11
24.4661380021
 21
319.6190484037
 31
0.0
  0
LINE
  5
BB
  8
0
  6
CONTINUOUS
 62
     7
 10
445.8661380021
 20
319.6190484037
 30
0.0
 11
420.8661380021
 21
319.6190484037
 31
0.0
  0
LINE
  5
BC
  8
0
  6
CONTINUOUS
 62
     7
 10
496.6661380021
 20
115.6190484037
 30
0.0
 11
496.6661380021
 21
168.6190484037
 31
0.0
  0
LINE
  5
BD
  8
0
  6
CONTINUOUS
 62
     7
 10
496.6661380021
 20
183.6190484037
 30
0.0
 11
496.6661380021
 21
236.6190484037
 31
0.0
  0
LINE
  5
BE
  8
0
  6
CONTINUOUS
 62
     7
 10
496.6661380021
 20
251.6190484037
 30
0.0
 11
496.6661380021
 21
304.6190484037
 31
0.0
  0
LINE
  5
BF
  8
0
  6
CONTINUOUS
 62
     7
 10
496.6661380021
 20
47.6190484037
 30
0.0
 11
496.6661380021
 21
100.6190484037
 31
0.0
  0
LINE
  5
C0
  8
0
  6
CONTINUOUS
 62
     7
 10
420.8661380021
 20
32.6190484037
 30
0.0
 11
445.8661380021
 21
32.6190484037
 31
0.0
  0
LINE
  5
C1
  8
0
  6
CONTINUOUS
 62
     7
 10
24.4661380021
 20
32.6190484037
 30
0.0
 11
44.4661380021
 21
32.6190484037
 31
0.0
  0
ENDSEC
  0
EOF
